<svg xmlns="http://www.w3.org/2000/svg" viewBox="0 0 126.611 126.611">
  <path fill="#F0B90B" d="M38.171 53.203L62.759 28.616 87.36 53.216 101.667 38.909 62.759 0 23.864 38.896z"/>
  <path fill="#F0B90B" d="M0 63.31L14.313 48.998 28.626 63.31 14.313 77.623z"/>
  <path fill="#F0B90B" d="M38.171 73.408L62.759 97.995 87.347 73.408 101.674 87.702 62.759 126.611 23.857 87.722z"/>
  <path fill="#F0B90B" d="M97.986 63.323L112.298 49.011 126.611 63.323 112.298 77.636z"/>
  <path fill="#F0B90B" d="M77.271 63.298L62.759 48.786 52.059 59.487 50.869 60.677 48.26 63.285 48.248 63.298 48.26 63.31 62.759 77.81 77.271 63.311 77.284 63.298z"/>
</svg>
